<svg width="34" height="32" viewBox="0 0 34 32" fill="none" xmlns="http://www.w3.org/2000/svg">
<path d="M26.4035 13.6337V13.6337L26.4094 13.6336C26.5485 13.6308 26.6866 13.6556 26.8158 13.7065C26.945 13.7574 27.0625 13.8333 27.1615 13.9296C27.2605 14.026 27.339 14.1408 27.3925 14.2674L27.6688 14.1505L27.3925 14.2674C27.4461 14.394 27.4736 14.5298 27.4736 14.6669V14.667L27.4736 25.6403L27.4736 25.6416C27.4768 26.375 27.2375 27.0894 26.792 27.6753C26.3466 28.2612 25.7194 28.6862 25.0066 28.8846L25.0066 28.8846L25.0019 28.886C24.6803 28.9812 24.3468 29.0309 24.0112 29.0337L7.30302 29.0337C7.30285 29.0337 7.30267 29.0337 7.3025 29.0337C6.39185 29.0303 5.51991 28.6697 4.87664 28.0312C4.23345 27.3928 3.87102 26.5283 3.86763 25.6264V9.33366C3.86763 8.35308 4.26005 7.41221 4.95929 6.71815C5.6586 6.02402 6.60754 5.63366 7.59748 5.63366H18.3437C18.6212 5.63366 18.8868 5.74307 19.0822 5.9371C19.2777 6.13107 19.387 6.39366 19.387 6.66699C19.387 6.94033 19.2777 7.20292 19.0822 7.39688C18.8868 7.59092 18.6212 7.70033 18.3437 7.70033H7.59748C7.16237 7.70033 6.74464 7.87187 6.43629 8.17793C6.12787 8.48407 5.95419 8.89975 5.95419 9.33366V16.8137V17.5376L6.46625 17.0259L8.45275 15.0407C8.45301 15.0405 8.45326 15.0402 8.45351 15.04C9.09905 14.4047 9.97178 14.0478 10.8818 14.0478C11.7919 14.0478 12.6646 14.4047 13.3102 15.0401C13.3104 15.0403 13.3106 15.0405 13.3109 15.0407L16.6409 18.3595L16.8538 18.5716L17.0655 18.3584L18.0047 17.4129C18.6502 16.7779 19.5227 16.4212 20.4326 16.4212C21.3427 16.4212 22.2156 16.7782 22.8612 17.4137C22.8613 17.4138 22.8615 17.4139 22.8616 17.4141L24.8488 19.3866L25.3602 19.8941V19.1737V14.667C25.3602 14.3937 25.4695 14.1311 25.6649 13.9371C25.8604 13.7431 26.126 13.6337 26.4035 13.6337ZM6.04285 20.3607L5.95419 20.4487V20.5737V25.3337C5.95419 25.7676 6.12787 26.1833 6.43629 26.4894C6.74464 26.7954 7.16237 26.967 7.59748 26.967H21.6482H22.377L21.8594 26.4539L11.8251 16.5073L11.8246 16.5068C11.5719 16.2574 11.2305 16.1178 10.8751 16.1178C10.5197 16.1178 10.1782 16.2574 9.92554 16.5068L9.92494 16.5074L6.04285 20.3607ZM25.36 25.3437L25.3602 25.3437V25.3337V22.947V22.8227L25.2722 22.7348L21.3916 18.8562C21.3914 18.856 21.3911 18.8558 21.3909 18.8556C21.2667 18.7299 21.1187 18.6302 20.9554 18.5621C20.792 18.4939 20.6165 18.4588 20.4393 18.4588C20.2621 18.4588 20.0866 18.4939 19.9231 18.5621C19.7604 18.63 19.6128 18.7292 19.4889 18.8543L18.5369 19.7859L18.3198 19.9983L18.5349 20.2128L24.6066 26.2661L24.8586 26.5174L25.0636 26.2265C25.2464 25.9671 25.3494 25.6604 25.36 25.3437ZM27.4467 5.33366V5.63366H27.7467H29.09C29.3674 5.63366 29.633 5.74307 29.8285 5.9371C30.0239 6.13106 30.1333 6.39366 30.1333 6.66699C30.1333 6.94033 30.0239 7.20292 29.8285 7.39688C29.633 7.59092 29.3674 7.70033 29.09 7.70033H27.7467H27.4467V8.00033V9.33366C27.4467 9.60699 27.3374 9.86959 27.142 10.0635C26.9465 10.2576 26.6809 10.367 26.4035 10.367C26.126 10.367 25.8604 10.2576 25.6649 10.0635C25.4695 9.86959 25.3602 9.60699 25.3602 9.33366V8.00033V7.70033H25.0602H23.7169C23.4395 7.70033 23.1739 7.59092 22.9784 7.39688C22.783 7.20292 22.6736 6.94033 22.6736 6.66699C22.6736 6.39366 22.783 6.13106 22.9784 5.9371C23.1739 5.74307 23.4395 5.63366 23.7169 5.63366H25.0602H25.3602V5.33366V4.00033C25.3602 3.72699 25.4695 3.4644 25.6649 3.27044C25.8604 3.0764 26.126 2.96699 26.4035 2.96699C26.6809 2.96699 26.9465 3.0764 27.142 3.27043C27.3374 3.4644 27.4467 3.72699 27.4467 4.00033V5.33366Z" fill="#BFB9D6" stroke="white" stroke-width="0.6"/>
</svg>
