<svg width="15" height="15" viewBox="0 0 15 15" fill="none" xmlns="http://www.w3.org/2000/svg">
<path d="M11.2727 14.3706L2.53833 14.3706C2.53824 14.3706 2.53815 14.3706 2.53806 14.3706C2.04718 14.3688 1.57706 14.1745 1.23017 13.8301C0.883278 13.4858 0.687739 13.0195 0.685938 12.5329V4.0161C0.685938 3.48832 0.897155 2.982 1.27337 2.60858C1.64961 2.23512 2.16005 2.02519 2.69245 2.02519H8.30982C8.46976 2.02519 8.62301 2.08826 8.73588 2.2003C8.84873 2.31231 8.91199 2.46407 8.91199 2.62216C8.91199 2.78024 8.84873 2.93201 8.73588 3.04402C8.62301 3.15605 8.46976 3.21913 8.30982 3.21913H2.69245C2.47994 3.21913 2.27599 3.30292 2.12549 3.45229C1.97498 3.6017 1.89028 3.80449 1.89028 4.0161V7.9261V8.1674L2.06097 7.99683L3.09966 6.95886C3.09975 6.95878 3.09984 6.95869 3.09992 6.9586C3.44805 6.61592 3.91864 6.4235 4.40926 6.4235C4.89989 6.4235 5.37049 6.61593 5.71862 6.95863C5.7187 6.95871 5.71878 6.95879 5.71886 6.95886L7.45982 8.6939L7.53077 8.76461L7.60136 8.69354L8.09209 8.19947C8.09223 8.19934 8.09237 8.1992 8.0925 8.19907C8.44062 7.85647 8.91115 7.66411 9.40169 7.66411C9.89239 7.66411 10.3631 7.85659 10.7112 8.19937C10.7112 8.19941 10.7113 8.19944 10.7113 8.19947L11.7502 9.23071L11.9207 9.39989V9.15973V6.80398C11.9207 6.64589 11.9839 6.49413 12.0968 6.38212C12.2097 6.27008 12.3629 6.20701 12.5228 6.20703L12.5248 6.20699C12.605 6.2054 12.6847 6.2197 12.7592 6.24905C12.8337 6.2784 12.9016 6.32219 12.9587 6.37782C13.0159 6.43345 13.0612 6.4998 13.0922 6.57296C13.1232 6.64612 13.1391 6.72465 13.1391 6.80396V6.80398L13.1391 12.54L13.1391 12.5405C13.1408 12.9364 13.0116 13.322 12.7712 13.6382C12.5308 13.9543 12.1924 14.1836 11.8079 14.2907L11.8079 14.2907L11.8063 14.2911C11.6331 14.3424 11.4534 14.3692 11.2727 14.3706ZM11.2727 14.3706H11.273V14.4706M11.2727 14.3706C11.2725 14.3706 11.2723 14.3706 11.2722 14.3706L11.273 14.4706M11.273 14.4706C11.4633 14.4691 11.6524 14.441 11.8347 14.387L0.585938 12.5331C0.587788 13.0464 0.794042 13.5381 1.15972 13.9011C1.5254 14.2641 2.02083 14.4688 2.53797 14.4706H11.273ZM1.91983 9.82058L1.89028 9.84991V9.89155V12.3797C1.89028 12.5913 1.97498 12.7941 2.12549 12.9435C2.27599 13.0929 2.47994 13.1767 2.69245 13.1767H10.0372H10.2801L10.1076 13.0057L4.86234 7.80629L4.86219 7.80614C4.74077 7.6863 4.57666 7.61916 4.40575 7.61916C4.23483 7.61916 4.07072 7.6863 3.9493 7.80614L3.94911 7.80634L1.91983 9.82058ZM11.9206 12.3831L11.9207 12.3831V12.3797V11.1322V11.0907L11.8914 11.0614L9.86257 9.03373C9.86249 9.03365 9.86241 9.03356 9.86233 9.03348C9.80269 8.97313 9.73157 8.92522 9.65315 8.89251C9.57463 8.85976 9.49034 8.8429 9.4052 8.8429C9.32008 8.8429 9.23578 8.85976 9.15726 8.89251C9.07902 8.92514 9.00805 8.97291 8.94849 9.03307L8.45053 9.52038L8.37817 9.59119L8.44987 9.66267L11.6237 12.8269L11.7077 12.9107L11.776 12.8137C11.8652 12.6872 11.9155 12.5376 11.9206 12.3831ZM13.125 1.92519V2.02519H13.225H13.9272C14.0871 2.02519 14.2404 2.08826 14.3532 2.2003C14.4661 2.31231 14.5294 2.46407 14.5294 2.62216C14.5294 2.78024 14.4661 2.93201 14.3532 3.04402C14.2404 3.15605 14.0871 3.21913 13.9272 3.21913H13.225H13.125V3.31913V4.0161C13.125 4.17418 13.0618 4.32595 12.9489 4.43796C12.836 4.54999 12.6828 4.61307 12.5228 4.61307C12.3629 4.61307 12.2097 4.54999 12.0968 4.43796C11.9839 4.32595 11.9207 4.17418 11.9207 4.0161V3.31913V3.21913H11.8207H11.1185C10.9586 3.21913 10.8053 3.15605 10.6924 3.04402C10.5796 2.93201 10.5163 2.78024 10.5163 2.62216C10.5163 2.46407 10.5796 2.31231 10.6924 2.2003C10.8053 2.08826 10.9586 2.02519 11.1185 2.02519H11.8207H11.9207V1.92519V1.22822C11.9207 1.07013 11.9839 0.918372 12.0968 0.806361C12.2097 0.694324 12.3629 0.63125 12.5228 0.63125C12.6828 0.63125 12.836 0.694324 12.9489 0.806361C13.0618 0.918372 13.125 1.07013 13.125 1.22822V1.92519Z" fill="#BFB9D6"/>
<path d="M11.2727 14.3706L2.53833 14.3706C2.53824 14.3706 2.53815 14.3706 2.53806 14.3706C2.04718 14.3688 1.57706 14.1745 1.23017 13.8301C0.883278 13.4858 0.687739 13.0195 0.685938 12.5329V4.0161C0.685938 3.48832 0.897155 2.982 1.27337 2.60858C1.64961 2.23512 2.16005 2.02519 2.69245 2.02519H8.30982C8.46976 2.02519 8.62301 2.08826 8.73588 2.2003C8.84873 2.31231 8.91199 2.46407 8.91199 2.62216C8.91199 2.78024 8.84873 2.93201 8.73588 3.04402C8.62301 3.15605 8.46976 3.21913 8.30982 3.21913H2.69245C2.47994 3.21913 2.27599 3.30292 2.12549 3.45229C1.97498 3.6017 1.89028 3.80449 1.89028 4.0161V7.9261V8.1674L2.06097 7.99683L3.09966 6.95886C3.09975 6.95878 3.09984 6.95869 3.09992 6.9586C3.44805 6.61592 3.91864 6.4235 4.40926 6.4235C4.89989 6.4235 5.37049 6.61593 5.71862 6.95863C5.7187 6.95871 5.71878 6.95879 5.71886 6.95886L7.45982 8.6939L7.53077 8.76461L7.60136 8.69354L8.09209 8.19947C8.09223 8.19934 8.09237 8.1992 8.0925 8.19907C8.44062 7.85647 8.91115 7.66411 9.40169 7.66411C9.89239 7.66411 10.3631 7.85659 10.7112 8.19937C10.7112 8.19941 10.7113 8.19944 10.7113 8.19947L11.7502 9.23071L11.9207 9.39989V9.15973V6.80398C11.9207 6.64589 11.9839 6.49413 12.0968 6.38212C12.2097 6.27008 12.3629 6.20701 12.5228 6.20703L12.5248 6.20699C12.605 6.2054 12.6847 6.2197 12.7592 6.24905C12.8337 6.2784 12.9016 6.32219 12.9587 6.37782C13.0159 6.43345 13.0612 6.4998 13.0922 6.57296C13.1232 6.64612 13.1391 6.72465 13.1391 6.80396V6.80398L13.1391 12.54L13.1391 12.5405C13.1408 12.9364 13.0116 13.322 12.7712 13.6382C12.5308 13.9543 12.1924 14.1836 11.8079 14.2907L11.8079 14.2907L11.8063 14.2911C11.6331 14.3424 11.4534 14.3692 11.2727 14.3706ZM11.2727 14.3706H11.273V14.4706M11.2727 14.3706C11.2725 14.3706 11.2723 14.3706 11.2722 14.3706L11.273 14.4706M11.273 14.4706C11.4633 14.4691 11.6524 14.441 11.8347 14.387L0.585938 12.5331C0.587788 13.0464 0.794042 13.5381 1.15972 13.9011C1.5254 14.2641 2.02083 14.4688 2.53797 14.4706H11.273ZM1.91983 9.82058L1.89028 9.84991V9.89155V12.3797C1.89028 12.5913 1.97498 12.7941 2.12549 12.9435C2.27599 13.0929 2.47994 13.1767 2.69245 13.1767H10.0372H10.2801L10.1076 13.0057L4.86234 7.80629L4.86219 7.80614C4.74077 7.6863 4.57666 7.61916 4.40575 7.61916C4.23483 7.61916 4.07072 7.6863 3.9493 7.80614L3.94911 7.80634L1.91983 9.82058ZM11.9206 12.3831L11.9207 12.3831V12.3797V11.1322V11.0907L11.8914 11.0614L9.86257 9.03373C9.86249 9.03365 9.86241 9.03356 9.86233 9.03348C9.80269 8.97313 9.73157 8.92522 9.65315 8.89251C9.57463 8.85976 9.49034 8.8429 9.4052 8.8429C9.32008 8.8429 9.23578 8.85976 9.15726 8.89251C9.07902 8.92514 9.00805 8.97291 8.94849 9.03307L8.45053 9.52038L8.37817 9.59119L8.44987 9.66267L11.6237 12.8269L11.7077 12.9107L11.776 12.8137C11.8652 12.6872 11.9155 12.5376 11.9206 12.3831ZM13.125 1.92519V2.02519H13.225H13.9272C14.0871 2.02519 14.2404 2.08826 14.3532 2.2003C14.4661 2.31231 14.5294 2.46407 14.5294 2.62216C14.5294 2.78024 14.4661 2.93201 14.3532 3.04402C14.2404 3.15605 14.0871 3.21913 13.9272 3.21913H13.225H13.125V3.31913V4.0161C13.125 4.17418 13.0618 4.32595 12.9489 4.43796C12.836 4.54999 12.6828 4.61307 12.5228 4.61307C12.3629 4.61307 12.2097 4.54999 12.0968 4.43796C11.9839 4.32595 11.9207 4.17418 11.9207 4.0161V3.31913V3.21913H11.8207H11.1185C10.9586 3.21913 10.8053 3.15605 10.6924 3.04402C10.5796 2.93201 10.5163 2.78024 10.5163 2.62216C10.5163 2.46407 10.5796 2.31231 10.6924 2.2003C10.8053 2.08826 10.9586 2.02519 11.1185 2.02519H11.8207H11.9207V1.92519V1.22822C11.9207 1.07013 11.9839 0.918372 12.0968 0.806361C12.2097 0.694324 12.3629 0.63125 12.5228 0.63125C12.6828 0.63125 12.836 0.694324 12.9489 0.806361C13.0618 0.918372 13.125 1.07013 13.125 1.22822V1.92519Z" fill="#3B28CC"/>
<path d="M11.2727 14.3706L2.53833 14.3706C2.53824 14.3706 2.53815 14.3706 2.53806 14.3706C2.04718 14.3688 1.57706 14.1745 1.23017 13.8301C0.883278 13.4858 0.687739 13.0195 0.685938 12.5329V4.0161C0.685938 3.48832 0.897155 2.982 1.27337 2.60858C1.64961 2.23512 2.16005 2.02519 2.69245 2.02519H8.30982C8.46976 2.02519 8.62301 2.08826 8.73588 2.2003C8.84873 2.31231 8.91199 2.46407 8.91199 2.62216C8.91199 2.78024 8.84873 2.93201 8.73588 3.04402C8.62301 3.15605 8.46976 3.21913 8.30982 3.21913H2.69245C2.47994 3.21913 2.27599 3.30292 2.12549 3.45229C1.97498 3.6017 1.89028 3.80449 1.89028 4.0161V7.9261V8.1674L2.06097 7.99683L3.09966 6.95886C3.09975 6.95878 3.09984 6.95869 3.09992 6.9586C3.44805 6.61592 3.91864 6.4235 4.40926 6.4235C4.89989 6.4235 5.37049 6.61593 5.71862 6.95863C5.7187 6.95871 5.71878 6.95879 5.71886 6.95886L7.45982 8.6939L7.53077 8.76461L7.60136 8.69354L8.09209 8.19947C8.09223 8.19934 8.09237 8.1992 8.0925 8.19907C8.44062 7.85647 8.91115 7.66411 9.40169 7.66411C9.89239 7.66411 10.3631 7.85659 10.7112 8.19937C10.7112 8.19941 10.7113 8.19944 10.7113 8.19947L11.7502 9.23071L11.9207 9.39989V9.15973V6.80398C11.9207 6.64589 11.9839 6.49413 12.0968 6.38212C12.2097 6.27008 12.3629 6.20701 12.5228 6.20703L12.5248 6.20699C12.605 6.2054 12.6847 6.2197 12.7592 6.24905C12.8337 6.2784 12.9016 6.32219 12.9587 6.37782C13.0159 6.43345 13.0612 6.4998 13.0922 6.57296C13.1232 6.64612 13.1391 6.72465 13.1391 6.80396V6.80398L13.1391 12.54L13.1391 12.5405C13.1408 12.9364 13.0116 13.322 12.7712 13.6382C12.5308 13.9543 12.1924 14.1836 11.8079 14.2907L11.8079 14.2907L11.8063 14.2911C11.6331 14.3424 11.4534 14.3692 11.2727 14.3706ZM11.2727 14.3706H11.273V14.4706M11.2727 14.3706C11.2725 14.3706 11.2723 14.3706 11.2722 14.3706L11.273 14.4706M11.273 14.4706C11.4633 14.4691 11.6524 14.441 11.8347 14.387L0.585938 12.5331C0.587788 13.0464 0.794042 13.5381 1.15972 13.9011C1.5254 14.2641 2.02083 14.4688 2.53797 14.4706H11.273ZM1.91983 9.82058L1.89028 9.84991V9.89155V12.3797C1.89028 12.5913 1.97498 12.7941 2.12549 12.9435C2.27599 13.0929 2.47994 13.1767 2.69245 13.1767H10.0372H10.2801L10.1076 13.0057L4.86234 7.80629L4.86219 7.80614C4.74077 7.6863 4.57666 7.61916 4.40575 7.61916C4.23483 7.61916 4.07072 7.6863 3.9493 7.80614L3.94911 7.80634L1.91983 9.82058ZM11.9206 12.3831L11.9207 12.3831V12.3797V11.1322V11.0907L11.8914 11.0614L9.86257 9.03373C9.86249 9.03365 9.86241 9.03356 9.86233 9.03348C9.80269 8.97313 9.73157 8.92522 9.65315 8.89251C9.57463 8.85976 9.49034 8.8429 9.4052 8.8429C9.32008 8.8429 9.23578 8.85976 9.15726 8.89251C9.07902 8.92514 9.00805 8.97291 8.94849 9.03307L8.45053 9.52038L8.37817 9.59119L8.44987 9.66267L11.6237 12.8269L11.7077 12.9107L11.776 12.8137C11.8652 12.6872 11.9155 12.5376 11.9206 12.3831ZM13.125 1.92519V2.02519H13.225H13.9272C14.0871 2.02519 14.2404 2.08826 14.3532 2.2003C14.4661 2.31231 14.5294 2.46407 14.5294 2.62216C14.5294 2.78024 14.4661 2.93201 14.3532 3.04402C14.2404 3.15605 14.0871 3.21913 13.9272 3.21913H13.225H13.125V3.31913V4.0161C13.125 4.17418 13.0618 4.32595 12.9489 4.43796C12.836 4.54999 12.6828 4.61307 12.5228 4.61307C12.3629 4.61307 12.2097 4.54999 12.0968 4.43796C11.9839 4.32595 11.9207 4.17418 11.9207 4.0161V3.31913V3.21913H11.8207H11.1185C10.9586 3.21913 10.8053 3.15605 10.6924 3.04402C10.5796 2.93201 10.5163 2.78024 10.5163 2.62216C10.5163 2.46407 10.5796 2.31231 10.6924 2.2003C10.8053 2.08826 10.9586 2.02519 11.1185 2.02519H11.8207H11.9207V1.92519V1.22822C11.9207 1.07013 11.9839 0.918372 12.0968 0.806361C12.2097 0.694324 12.3629 0.63125 12.5228 0.63125C12.6828 0.63125 12.836 0.694324 12.9489 0.806361C13.0618 0.918372 13.125 1.07013 13.125 1.22822V1.92519Z" stroke="white" stroke-width="0.2"/>
</svg>
