<svg width="32" height="36" viewBox="0 0 32 36" fill="none" xmlns="http://www.w3.org/2000/svg">
<path d="M22.7435 0.500305C28.3668 0.500305 31.7348 3.91532 31.75 9.6173V26.3833C31.75 32.0853 28.3973 35.5003 22.7587 35.5003H17.7602C17.1191 35.4286 16.6339 34.8794 16.6339 34.2255C16.6339 33.5715 17.1191 33.0223 17.7602 32.9506H22.7435C27.041 32.9506 29.205 30.7409 29.205 26.3833V9.6173C29.205 5.25969 27.041 3.04997 22.7435 3.04997H9.24129C4.94376 3.04997 2.76451 5.25969 2.76451 9.6173V26.3833C2.76451 30.7409 4.94376 32.9506 9.24129 32.9506C9.88233 33.0223 10.3675 33.5715 10.3675 34.2255C10.3675 34.8794 9.88233 35.4286 9.24129 35.5003C3.61792 35.5003 0.25 32.0853 0.25 26.3833V9.6173C0.25 3.89986 3.61792 0.500305 9.24129 0.500305H22.7435ZM22.2863 24.1427C22.9764 24.1427 23.5359 24.71 23.5359 25.4098C23.5359 26.1096 22.9764 26.6769 22.2863 26.6769H9.668C8.97784 26.6769 8.41836 26.1096 8.41836 25.4098C8.41836 24.71 8.97784 24.1427 9.668 24.1427H22.2863ZM22.2863 16.7255C22.7685 16.6716 23.2387 16.9021 23.4964 17.3188C23.7542 17.7355 23.7542 18.2651 23.4964 18.6818C23.2387 19.0985 22.7685 19.3291 22.2863 19.2751H9.668C9.02696 19.2035 8.54175 18.6542 8.54175 18.0003C8.54175 17.3464 9.02696 16.7971 9.668 16.7255H22.2863ZM14.4837 9.3237C15.1247 9.39537 15.6099 9.9446 15.6099 10.5985C15.6099 11.2525 15.1247 11.8017 14.4837 11.8734H9.68324C9.0422 11.8017 8.55699 11.2525 8.55699 10.5985C8.55699 9.9446 9.0422 9.39537 9.68324 9.3237H14.4837Z" fill="#C4BFC8"/>
</svg>
