<svg width="40" height="40" viewBox="0 0 40 40" fill="none" xmlns="http://www.w3.org/2000/svg">
<path d="M36.3427 16.7345H35.0002V16.6654H20.0002V23.332H29.4193C28.0452 27.2129 24.3527 29.9987 20.0002 29.9987C14.4777 29.9987 10.0002 25.5212 10.0002 19.9987C10.0002 14.4762 14.4777 9.9987 20.0002 9.9987C22.5493 9.9987 24.8685 10.9604 26.6343 12.5312L31.3485 7.81703C28.3718 5.04286 24.3902 3.33203 20.0002 3.33203C10.796 3.33203 3.3335 10.7945 3.3335 19.9987C3.3335 29.2029 10.796 36.6654 20.0002 36.6654C29.2043 36.6654 36.6668 29.2029 36.6668 19.9987C36.6668 18.8812 36.5518 17.7904 36.3427 16.7345Z" fill="#FFC107"/>
<path d="M5.25488 12.2412L10.7307 16.257C12.2124 12.5887 15.8007 9.9987 19.9999 9.9987C22.549 9.9987 24.8682 10.9604 26.634 12.5312L31.3482 7.81703C28.3715 5.04286 24.3899 3.33203 19.9999 3.33203C13.5982 3.33203 8.04655 6.9462 5.25488 12.2412Z" fill="#FF3D00"/>
<path d="M20.0001 36.6672C24.3051 36.6672 28.2168 35.0197 31.1743 32.3406L26.0159 27.9756C24.3426 29.2431 22.2626 30.0006 20.0001 30.0006C15.6651 30.0006 11.9843 27.2364 10.5976 23.3789L5.1626 27.5664C7.92093 32.9639 13.5226 36.6672 20.0001 36.6672Z" fill="#4CAF50"/>
<path d="M36.3425 16.7371H35V16.668H20V23.3346H29.4192C28.7592 25.1988 27.56 26.8063 26.0133 27.9771C26.0142 27.9763 26.015 27.9763 26.0158 27.9755L31.1742 32.3405C30.8092 32.6721 36.6667 28.3346 36.6667 20.0013C36.6667 18.8838 36.5517 17.793 36.3425 16.7371Z" fill="#1976D2"/>
</svg>
