<svg width="339" height="313" viewBox="0 0 339 313" fill="none" xmlns="http://www.w3.org/2000/svg">
<path d="M210.127 248.835C207.779 254.573 192.025 253.843 190.199 258.746C188.373 263.65 204.44 263.18 203.919 269.336C203.397 275.492 193.694 276.431 176.27 277.422C158.847 278.413 154.986 283.004 137.563 288.69C120.139 294.376 112.471 287.021 102.715 281.7C93.0124 276.431 74.3889 286.134 68.5462 277.944C62.7036 269.701 78.6144 266.78 92.6472 263.598C106.732 260.363 100.368 258.851 100.003 252.017C99.9506 250.608 100.368 249.513 101.15 248.626C104.333 245.183 113.566 245.131 124.625 245.339C138.554 245.652 142.049 241.01 161.455 241.427C179.348 241.792 207.414 242.888 209.97 247.53C210.283 247.948 210.335 248.365 210.127 248.835Z" fill="#99ADF9"/>
<path d="M237.357 259.006C237.201 259.319 236.94 259.632 236.627 259.997C234.384 262.449 227.028 263.962 221.133 264.066C213.83 264.119 206.214 263.649 205.953 259.215C205.744 254.781 224.42 254.52 230.941 255.25C236.575 255.772 238.348 257.076 237.357 259.006Z" fill="#99ADF9"/>
<path d="M93.0114 258.277C92.9071 258.538 92.6984 258.799 92.4376 259.059C90.6639 260.99 84.8734 262.242 80.2306 262.294C74.4923 262.346 68.4409 261.981 68.2844 258.381C68.1279 254.834 82.8389 254.625 87.9513 255.199C92.3854 255.669 93.8461 256.712 93.0114 258.277Z" fill="#99ADF9"/>
<path d="M186.442 286.082C181.33 288.117 162.237 288.221 162.289 285.717C162.289 285.404 162.394 285.091 162.602 284.83C164.011 282.848 169.853 281.752 175.122 281.544C181.33 281.335 185.555 282.013 187.433 283.004C189.155 283.943 188.894 285.091 186.442 286.082Z" fill="#99ADF9"/>
<path d="M137.72 279.874C133.025 281.595 118.105 281.178 118.21 278.1C118.21 277.735 118.314 277.37 118.47 277.005C119.722 274.605 123.635 273.718 128.121 273.562C133.338 273.353 137.616 274.188 139.337 275.179C141.528 276.379 141.58 278.413 137.72 279.874Z" fill="#7C99F2"/>
<path d="M195.572 250.608C192.807 251.964 182.739 251.86 182.791 250.086C182.791 249.877 182.843 249.669 182.948 249.46C183.73 248.104 186.808 247.373 189.625 247.269C192.912 247.165 195.155 247.686 196.094 248.417C197.033 249.095 196.876 249.93 195.572 250.608Z" fill="#7C99F2"/>
<path d="M192.859 269.284C190.616 270.379 182.374 270.275 182.426 268.867C182.426 268.71 182.478 268.501 182.583 268.345C183.209 267.249 185.765 266.623 188.06 266.571C190.773 266.467 192.599 266.936 193.381 267.51C194.059 268.084 193.955 268.762 192.859 269.284Z" fill="#7C99F2"/>
<path d="M167.924 268.397C144.24 274.918 108.714 264.067 109.027 257.859C109.08 257.077 109.393 256.399 109.966 255.773C114.035 251.286 130.624 250.034 145.701 250.921C163.385 252.017 175.331 254.834 180.548 257.859C185.295 260.52 180.026 265.058 167.924 268.397Z" fill="#7C99F2"/>
<path d="M107.776 270.118C105.532 271.37 97.1857 271.265 97.29 269.648C97.29 269.44 97.3422 269.283 97.4465 269.074C98.0725 267.822 100.629 267.144 102.924 267.04C105.637 266.936 107.463 267.405 108.245 268.083C108.975 268.761 108.871 269.544 107.776 270.118Z" fill="#7C99F2"/>
<path d="M183.836 86.8046C183.836 86.8046 182.48 82.5791 187.175 82.3182C191.87 82.1096 187.175 75.1714 191.87 71.1546C196.565 67.1377 202.147 68.9114 202.355 74.2846C202.564 79.6577 201.677 82.9964 202.355 84.3527C203.034 85.7091 205.016 81.9009 207.468 84.5614C209.92 87.2219 194.739 138.606 194.739 138.606L186.497 136.572L183.836 86.8046Z" fill="#D2E9FF"/>
<path d="M198.755 94.9956C196.512 96.0389 191.921 126.713 195.729 123.687C196.616 123.009 204.493 92.3351 198.755 94.9956Z" fill="#E3F0FF"/>
<path d="M237.621 62.6001C237.412 64.0608 237.047 65.4171 236.682 66.6169C233.03 77.6763 223.066 78.0936 222.91 79.6065C222.753 81.2758 230.109 86.8055 223.223 93.535C216.337 100.264 202.304 91.7091 198.6 91.3961C193.383 90.9788 182.532 100.264 175.073 90.6136C170.273 84.4058 177.994 80.9106 176.22 79.1891C174.447 77.4676 160.57 77.1546 160.57 61.5568C160.57 61.2438 160.57 60.9308 160.57 60.6178C161.092 45.0199 174.968 46.1154 175.646 43.0376C176.325 39.9598 176.168 21.9101 198.078 21.1276C220.04 20.3451 219.362 42.5681 221.345 43.6114C223.431 44.7069 239.968 47.5761 237.621 62.6001Z" fill="#E3F0FF"/>
<path d="M220.196 75.5895C224.891 73.6593 231.934 70.2163 236.629 66.6168C232.977 77.6761 223.013 78.0935 222.857 79.6063C222.7 81.2756 230.056 86.8053 223.17 93.5348C216.284 100.264 202.251 91.709 198.547 91.396C193.33 90.9786 182.48 100.264 175.02 90.6135C170.221 84.4056 177.941 80.9105 176.168 79.189C174.394 77.4675 160.518 77.1545 160.518 61.5566C161.717 64.0085 164.221 67.5036 169.595 69.9555C178.619 74.0766 184.984 69.486 188.166 73.9201C191.348 78.3543 184.671 81.1191 187.644 83.7275C190.67 86.3358 195.365 79.7628 202.877 83.258C210.441 86.7531 215.136 89.0485 218.11 85.8663C221.24 82.632 213.519 78.3543 220.196 75.5895Z" fill="#D2E9FF"/>
<path d="M184.566 53.4196C184.566 53.4196 184.514 53.3675 184.357 53.2631C184.201 53.1588 184.044 53.0023 183.783 52.7415C183.314 52.272 182.688 51.5416 182.166 50.5505C181.905 50.081 181.645 49.5071 181.436 48.8811C181.227 48.2551 181.123 47.577 181.019 46.8466C180.966 46.1163 180.966 45.386 181.071 44.6556C181.123 44.2905 181.175 43.9253 181.279 43.5601C181.332 43.3515 181.332 43.2471 181.436 42.9341L181.592 42.4125C181.749 41.7865 182.166 41.004 182.584 40.3258C183.001 39.6998 183.575 39.0738 184.149 38.6043C184.775 38.1348 185.401 37.7696 186.027 37.5088C186.653 37.248 187.331 37.0915 187.905 36.9871C188.478 36.8828 189.052 36.8828 189.522 36.8828C189.991 36.8828 190.409 36.8828 190.774 36.935C191.139 36.9871 191.4 36.9871 191.556 37.0393C191.765 37.0915 191.869 37.0915 191.869 37.0915C192.547 37.248 192.965 37.874 192.808 38.5521C192.652 39.2303 192.026 39.6476 191.348 39.4911H191.295H191.191C191.191 39.4911 191.139 39.4911 191.035 39.439C190.878 39.3868 190.722 39.3346 190.409 39.3346C190.148 39.2825 189.835 39.2303 189.417 39.2303C189.052 39.2303 188.635 39.1781 188.165 39.2303C187.696 39.2825 187.226 39.3346 186.757 39.5433C186.287 39.6998 185.766 39.9085 185.348 40.2215C184.879 40.5345 184.462 40.9518 184.096 41.4213C183.731 41.8908 183.47 42.3081 183.21 43.0385L183.001 43.508L182.897 43.9253C182.792 44.2383 182.688 44.5513 182.688 44.8643C182.584 45.4903 182.531 46.1163 182.531 46.6901C182.531 47.264 182.636 47.89 182.74 48.4116C182.844 48.9333 183.053 49.455 183.262 49.8723C183.679 50.7591 184.201 51.4373 184.566 51.8546C184.775 52.0633 184.931 52.2198 185.035 52.3241C185.14 52.4285 185.192 52.4806 185.192 52.4806H185.244C185.453 52.6893 185.505 53.0545 185.296 53.2631C185.14 53.524 184.827 53.5761 184.566 53.4196Z" fill="#D2E9FF"/>
<path d="M190.879 38.0825C190.879 38.0825 190.879 37.9782 190.931 37.7173C190.983 37.5087 191.087 37.1957 191.192 36.7783C191.453 35.9958 191.87 34.9003 192.757 33.7005C193.174 33.1267 193.748 32.5007 194.426 32.0312C195.104 31.5095 195.887 31.0922 196.721 30.727C197.139 30.5705 197.608 30.4662 198.078 30.3097C198.547 30.2053 199.017 30.1532 199.486 30.101C199.956 30.0488 200.425 30.0488 200.895 30.0488H201.26H201.312H201.469H201.521H201.677L202.303 30.101C202.512 30.1532 202.668 30.1532 202.929 30.2053L203.712 30.414C203.973 30.5183 204.233 30.5705 204.494 30.6748L205.172 30.9878C205.642 31.1965 206.059 31.4573 206.424 31.7703C206.842 32.0312 207.155 32.3963 207.52 32.7093C208.824 34.0657 209.554 35.6828 209.972 36.987C210.389 38.3433 210.598 39.491 210.702 40.2735C210.754 40.6908 210.754 41.0038 210.806 41.2125C210.806 41.4733 210.806 41.5777 210.806 41.5777C210.859 42.5167 210.128 43.2992 209.189 43.2992C208.25 43.3513 207.468 42.621 207.468 41.682V41.6298V41.5255C207.468 41.5255 207.468 41.4733 207.468 41.3168C207.468 41.1603 207.468 40.8995 207.416 40.5865C207.363 39.9605 207.259 38.9693 206.946 37.926C206.633 36.8827 206.111 35.6828 205.277 34.7438C205.068 34.5352 204.859 34.2743 204.599 34.0657C204.338 33.857 204.077 33.6483 203.816 33.544L203.399 33.2832C203.242 33.231 203.138 33.1788 202.981 33.1267L202.564 32.9702C202.408 32.918 202.147 32.918 201.99 32.8658L201.364 32.7615H201.208H201.156C201.051 32.7615 201.312 32.7615 201.26 32.7615H201.208H200.947C200.582 32.7615 200.217 32.7093 199.851 32.7615C199.486 32.8137 199.121 32.8137 198.808 32.8658C198.495 32.9702 198.13 33.0223 197.817 33.1267C197.191 33.3353 196.617 33.5962 196.148 33.9613C195.678 34.2743 195.261 34.6917 194.948 35.109C194.27 35.9437 193.904 36.7783 193.696 37.4043C193.591 37.7173 193.539 37.926 193.487 38.0825C193.435 38.239 193.435 38.2912 193.435 38.2912V38.3955C193.278 39.0737 192.652 39.4388 191.974 39.3345C191.14 39.3345 190.774 38.7085 190.879 38.0825Z" fill="#D2E9FF"/>
<path d="M216.806 45.752C216.806 45.752 217.171 45.752 217.745 45.8041C218.319 45.8563 219.101 45.9606 220.04 46.2215C220.979 46.4823 222.075 46.8996 223.118 47.7343C223.64 48.1516 224.109 48.6211 224.527 49.195C224.735 49.508 224.892 49.7688 225.048 50.134L225.257 50.6035L225.361 51.1251C225.518 51.6468 225.674 52.4293 225.674 53.0553C225.727 53.7335 225.674 54.3595 225.518 54.9333C225.257 56.1331 224.788 57.1765 224.266 57.959C223.744 58.7415 223.17 59.3153 222.805 59.6805C222.388 60.0456 222.127 60.2543 222.127 60.2543C221.866 60.463 221.449 60.4108 221.24 60.15C221.032 59.8891 221.084 59.4718 221.345 59.2631C221.292 59.3153 222.231 58.585 223.014 57.1765C223.431 56.4983 223.744 55.6115 223.849 54.6203C223.901 54.1508 223.901 53.6291 223.849 53.1596C223.796 52.638 223.692 52.2728 223.483 51.6468L223.379 51.2816L223.223 50.9686C223.118 50.76 222.962 50.5513 222.857 50.3948C222.597 50.0296 222.231 49.7688 221.866 49.508C221.084 49.0385 220.249 48.7255 219.467 48.569C218.684 48.4125 218.058 48.3603 217.589 48.3603C217.119 48.3603 216.91 48.3603 216.91 48.3603C216.18 48.3603 215.554 47.7865 215.554 47.0561C215.502 46.378 216.076 45.752 216.806 45.752Z" fill="#D2E9FF"/>
<path d="M182.167 52.1148C182.167 52.1148 182.114 52.1148 182.062 52.1148C181.958 52.1148 181.854 52.167 181.697 52.2192C181.332 52.3235 180.862 52.48 180.341 52.8452C180.08 53.0017 179.819 53.2103 179.61 53.4712C179.35 53.732 179.141 54.045 178.984 54.4102C178.828 54.7753 178.671 55.1405 178.567 55.61C178.463 56.0273 178.411 56.549 178.411 56.9663C178.411 57.5402 178.463 57.9053 178.567 58.3227C178.671 58.74 178.828 59.1573 179.089 59.5225C179.558 60.2528 180.184 60.7745 180.81 61.1397C181.436 61.5048 182.01 61.7135 182.427 61.8178C182.845 61.9222 183.106 61.9743 183.053 61.9743C183.314 61.9743 183.523 62.2352 183.471 62.496C183.471 62.7568 183.21 62.9655 182.949 62.9133C182.949 62.9133 182.636 62.9133 182.167 62.809C181.697 62.7047 181.019 62.5482 180.184 62.2352C179.402 61.87 178.515 61.2962 177.785 60.4093C177.419 59.9398 177.159 59.4182 176.95 58.8965C176.846 58.6357 176.793 58.2705 176.689 58.0097C176.585 57.6967 176.585 57.488 176.533 57.175C176.533 57.0185 176.48 56.9663 176.48 56.7055V56.2882C176.48 55.9752 176.48 55.7143 176.533 55.4013C176.585 54.8275 176.689 54.2015 176.898 53.6798C177.106 53.106 177.367 52.5843 177.732 52.167C178.045 51.6975 178.411 51.3323 178.828 51.0193C179.558 50.3933 180.289 50.0803 180.81 49.8717C181.071 49.7673 181.28 49.7152 181.436 49.663C181.593 49.6108 181.697 49.6108 181.697 49.6108C182.427 49.4543 183.158 49.8717 183.314 50.602C183.471 51.3323 183.053 52.0627 182.323 52.2192C182.271 52.1148 182.219 52.1148 182.167 52.1148Z" fill="#D2E9FF"/>
<path d="M214.145 67.8694C214.145 67.8694 214.145 68.2346 214.041 68.8084C213.936 69.3823 213.78 70.1648 213.467 71.1038C213.154 72.0428 212.684 73.1383 211.798 74.1294C211.38 74.5989 210.859 75.0684 210.233 75.4336C209.92 75.5901 209.607 75.7988 209.294 75.9031L208.772 76.0596L208.302 76.1639C207.781 76.3204 206.998 76.3726 206.372 76.3726C205.694 76.3726 205.068 76.2683 204.494 76.1639C203.294 75.8509 202.303 75.3293 201.521 74.7554C200.738 74.1816 200.217 73.6078 199.851 73.1904C199.486 72.7731 199.33 72.5123 199.33 72.4601C199.121 72.1993 199.225 71.7819 199.486 71.5733C199.747 71.3646 200.164 71.4689 200.373 71.7298C200.373 71.6776 200.999 72.6166 202.408 73.5034C203.086 73.9208 203.973 74.3381 204.912 74.4946C205.381 74.5989 205.903 74.5989 206.372 74.5468C206.894 74.4946 207.259 74.4424 207.885 74.2338L208.25 74.1294L208.563 73.9729C208.772 73.8686 208.981 73.7643 209.137 73.6078C209.502 73.3469 209.815 72.9818 210.076 72.6688C210.598 71.9384 210.911 71.1038 211.119 70.3213C211.328 69.5388 211.38 68.9128 211.432 68.4433C211.485 67.9738 211.432 67.7651 211.432 67.7651C211.432 67.0348 212.058 66.4609 212.789 66.4609C213.571 66.5131 214.197 67.0869 214.145 67.8694Z" fill="#D2E9FF"/>
<path d="M172.723 111.011L170.532 104.907C170.532 104.907 175.592 104.125 172.932 97.4997C171.419 93.7958 167.141 96.7172 167.141 96.7172C167.141 96.7172 166.411 91.344 160.829 92.5438C156.447 93.4828 156.343 100.525 158.064 102.769C159.734 105.012 161.455 104.803 161.455 104.803C161.455 104.803 157.804 104.699 158.377 108.037C158.951 111.376 161.82 111.533 164.011 110.437C165.055 109.915 165.837 108.611 165.837 108.611L170.584 112.524C171.002 112.889 171.628 112.941 172.149 112.68C172.723 112.419 172.984 111.689 172.723 111.011Z" fill="#D2E9FF"/>
<path d="M224.786 124.679C224.577 125.67 224.212 126.557 223.795 127.026C222.543 128.487 220.561 128.643 220.561 128.643C220.561 128.643 222.334 129.634 221.03 131.773C220.039 133.338 217.118 132.399 216.335 131.408C215.5 130.417 215.5 129.269 215.5 129.269L211.953 132.295C211.379 132.817 210.44 132.764 209.919 132.138C209.449 131.617 209.449 130.782 209.919 130.26L210.388 129.739L213.257 126.348C213.257 126.348 209.188 124.679 210.649 121.653C211.953 118.888 214.561 120.192 215.24 120.923C215.866 121.601 215.97 122.748 215.97 122.748C215.97 122.748 217.17 118.106 221.5 119.149C224.734 119.879 225.203 122.54 224.786 124.679Z" fill="#D2E9FF"/>
<path d="M113.88 188.478C114.715 189.626 114.767 191.191 113.932 192.391L113.619 192.808C113.306 193.225 112.837 193.434 112.367 193.434C112.002 193.434 111.689 193.33 111.376 193.069L106.368 188.687C106.368 188.687 103.916 194.373 97.2389 193.069C92.596 192.13 91.3962 188.165 91.9179 184.879C92.1265 183.262 92.7525 181.801 93.5872 180.914C95.0479 179.349 96.9259 179.14 98.2822 179.193C96.9259 178.775 94.9957 177.68 94.2654 174.967C93.7959 173.246 93.9002 171.524 94.5262 170.168C95.5174 168.029 97.7605 166.673 100.943 167.038C106.212 167.716 106.316 175.176 106.316 175.176C106.316 175.176 108.142 170.116 113.15 172.307C117.532 174.237 116.28 180.079 113.306 182.375C111.741 183.575 110.385 183.835 110.385 183.835L113.88 188.478Z" fill="#E1ECFF"/>
<path d="M102.559 180.131C102.559 180.131 100.42 179.714 98.3334 179.14C96.9771 178.723 95.0469 177.679 94.2644 174.915C93.7949 173.193 93.8993 171.472 94.5253 170.115C94.8383 171.941 95.6729 174.81 97.7074 176.688C100.89 179.61 102.559 180.131 102.559 180.131Z" fill="#C5DFFF"/>
<path d="M113.619 192.756C113.306 193.173 112.837 193.382 112.367 193.382C112.002 193.382 111.689 193.277 111.376 193.016L106.368 188.634C106.368 188.634 103.916 194.321 97.2389 193.016C92.596 192.077 91.3962 188.113 91.9179 184.826C92.6482 186.391 94.2654 188.165 97.9692 188.791C105.377 190.095 105.586 185.452 105.586 185.452L113.619 192.756Z" fill="#C5DFFF"/>
<path d="M133.495 176.949C132.817 176.949 130.574 176.793 128.539 174.915C126.505 173.037 125.462 170.063 125.409 166.151C125.305 156.917 123.531 155.665 121.601 155.091C118.889 154.309 115.967 155.352 115.967 155.352C114.924 155.77 113.776 155.248 113.359 154.205C112.942 153.161 113.463 152.014 114.507 151.596C114.663 151.544 118.628 150.031 122.697 151.179C128.122 152.744 129.322 158.013 129.374 166.046C129.426 168.759 130.052 170.794 131.148 171.889C132.191 172.88 133.391 172.88 133.391 172.88C134.486 172.776 135.425 173.715 135.478 174.81C135.53 175.906 134.695 176.845 133.6 176.897C133.652 176.949 133.6 176.949 133.495 176.949Z" fill="#FF97C9"/>
<path d="M131.877 148.883C131.356 149.353 129.843 151.022 129.634 153.735C129.478 156.5 130.73 159.369 133.39 162.29C139.598 169.072 139.233 171.211 138.189 172.932C136.729 175.384 133.912 176.584 133.912 176.584C132.868 177.001 132.399 178.149 132.816 179.192C133.234 180.235 134.381 180.705 135.425 180.288C135.581 180.235 139.546 178.618 141.685 174.967C144.554 170.063 141.789 165.472 136.416 159.525C134.59 157.543 133.651 155.613 133.703 154.048C133.755 152.587 134.642 151.805 134.694 151.752C135.529 151.074 135.581 149.77 134.851 148.935C134.12 148.101 132.921 147.996 132.034 148.727C131.982 148.779 131.929 148.831 131.877 148.883Z" fill="#99ADF9"/>
<path d="M224.317 160.83C222.335 160.83 220.144 160.204 218.161 158.639C214.77 156.031 212.527 157.804 212.527 157.856C211.693 158.587 210.388 158.482 209.71 157.596C208.98 156.761 209.084 155.457 209.971 154.779C211.588 153.422 215.918 151.805 220.665 155.457C223.221 157.439 225.934 156.917 226.977 155.926C227.969 155.039 228.542 152.483 228.647 150.97C228.699 149.875 229.69 148.988 230.786 149.092C231.881 149.145 232.716 150.136 232.664 151.231C232.611 151.753 232.246 156.604 229.69 158.9C228.386 160.1 226.456 160.83 224.317 160.83Z" fill="#99ADF9"/>
<path d="M223.273 185.662L239.915 204.285C239.915 204.285 235.063 195.939 230.89 190.67C226.508 185.244 223.273 185.662 223.273 185.662Z" fill="#E1ECFF"/>
<path d="M236.367 194.218C236.367 194.218 232.089 189.105 231.463 188.323C229.794 186.288 228.594 185.662 228.594 185.662C228.594 185.662 230.107 185.454 232.089 187.958C234.071 190.41 236.367 194.218 236.367 194.218Z" fill="#E1ECFF"/>
<path d="M210.857 176.846L218.369 163.908L213.883 175.854L220.508 182.427L210.857 176.846Z" fill="#FEC272"/>
<path d="M222.595 170.377L211.797 176.167L214.457 177.159L222.595 170.377Z" fill="#FEC272"/>
<path d="M113.515 147.579L109.602 143.04C109.133 142.466 109.185 141.632 109.759 141.11C110.332 140.64 111.167 140.693 111.689 141.266C111.793 141.371 111.845 141.475 111.897 141.579L114.401 147.005C114.506 147.266 114.401 147.579 114.141 147.683C113.932 147.839 113.671 147.787 113.515 147.579Z" fill="#FEC272"/>
<path d="M109.915 152.534L102.56 153.264C101.83 153.316 101.151 152.795 101.099 152.064C101.047 151.334 101.569 150.656 102.299 150.604C102.403 150.604 102.508 150.604 102.612 150.604L109.915 151.49C110.228 151.543 110.385 151.803 110.385 152.064C110.333 152.325 110.176 152.534 109.915 152.534Z" fill="#FEC272"/>
<path d="M113.15 158.586L109.55 163.073C109.081 163.647 108.246 163.751 107.672 163.281C107.098 162.812 106.994 161.977 107.464 161.403C107.516 161.299 107.62 161.195 107.724 161.143L112.419 157.804C112.68 157.647 112.993 157.7 113.202 157.908C113.358 158.117 113.306 158.378 113.15 158.586Z" fill="#FEC272"/>
<path d="M134.953 144.919L137.718 141.267C138.083 140.798 138.709 140.746 139.179 141.059C139.648 141.424 139.7 142.05 139.387 142.519C139.335 142.571 139.283 142.676 139.179 142.728L135.527 145.493C135.371 145.649 135.11 145.597 134.953 145.441C134.849 145.284 134.849 145.075 134.953 144.919Z" fill="#FEC272"/>
<path d="M130.676 143.04L128.902 137.667C128.746 137.146 129.006 136.52 129.58 136.363C130.102 136.207 130.728 136.467 130.884 137.041C130.884 137.093 130.937 137.198 130.937 137.25L131.458 142.884C131.458 143.093 131.302 143.301 131.093 143.301C130.884 143.301 130.728 143.197 130.676 143.04Z" fill="#FEC272"/>
<path d="M126.66 146.432L122.695 144.449C122.173 144.188 121.965 143.562 122.226 143.041C122.486 142.519 123.112 142.31 123.634 142.571C123.738 142.623 123.791 142.676 123.895 142.728L127.181 145.701C127.338 145.858 127.39 146.119 127.234 146.327C127.025 146.484 126.816 146.536 126.66 146.432Z" fill="#FEC272"/>
<path d="M231.88 139.65L230.941 145.023C230.889 145.336 230.628 145.493 230.315 145.44C230.054 145.388 229.898 145.18 229.846 144.971L229.168 139.546C229.063 138.815 229.585 138.137 230.367 138.033C231.098 137.928 231.776 138.45 231.88 139.233C231.932 139.389 231.932 139.493 231.88 139.65Z" fill="#FEC272"/>
<path d="M241.321 144.711L235.844 148.31C235.479 148.519 235.009 148.467 234.801 148.101C234.592 147.788 234.644 147.371 234.905 147.11L239.704 142.624C240.226 142.102 241.113 142.154 241.582 142.676C242.104 143.198 242.052 144.085 241.53 144.554C241.426 144.606 241.374 144.658 241.321 144.711Z" fill="#FEC272"/>
<path d="M240.435 156.187L235.74 153.944C235.427 153.787 235.27 153.422 235.427 153.057C235.531 152.796 235.844 152.639 236.105 152.692L241.217 153.578C241.947 153.683 242.469 154.413 242.313 155.143C242.208 155.874 241.478 156.395 240.748 156.239C240.695 156.291 240.591 156.239 240.435 156.187Z" fill="#FEC272"/>
<path d="M166.933 130.625C166.933 130.625 144.97 156.917 144.136 156.239C143.927 156.082 143.562 154.882 143.092 152.952C141.84 147.475 140.119 135.998 139.91 123.791C139.649 107.359 140.067 102.351 144.449 100.316C147.683 98.8033 156.499 113.358 162.29 123.113C164.376 126.452 165.994 129.216 166.933 130.625Z" fill="#FF97C9"/>
<path d="M166.932 130.625C166.932 130.625 144.97 156.917 144.135 156.239C143.926 156.083 143.561 154.883 143.092 152.953C145.231 147.475 147.839 141.685 150.708 137.303C155.351 130.312 159.524 125.774 162.289 123.113C164.376 126.452 165.993 129.217 166.932 130.625Z" fill="#FC75BC"/>
<path d="M242.993 221.03C241.637 223.847 229.065 219.934 218.788 216.387C216.805 215.709 214.875 215.03 213.102 214.404C209.033 212.996 206.32 209.136 206.32 204.806C206.372 194.738 205.433 178.722 207.363 177.888C209.659 176.844 221.031 188.06 231.412 200.111C242.158 212.579 245.028 216.7 242.993 221.03Z" fill="#FF97C9"/>
<path d="M218.788 216.388C216.805 215.71 214.875 215.031 213.102 214.405C209.033 212.997 206.32 209.137 206.32 204.807C206.372 194.739 205.433 178.723 207.363 177.889C207.415 177.889 211.693 191.139 214.614 201.572C216.284 207.624 217.692 212.58 218.788 216.388Z" fill="#FC75BC"/>
<path d="M211.275 151.804C210.91 166.046 208.824 189.729 200.32 213.204C192.965 233.549 186.601 247.06 182.375 255.042C178.88 261.615 176.845 264.536 176.845 264.536C176.845 264.536 171.316 267.301 160.674 268.136C154.727 268.605 147.215 268.501 138.19 266.988C112.941 262.763 110.281 254.833 110.281 254.833C110.281 254.833 109.916 250.295 111.115 241.374C112.628 229.898 116.802 211.222 127.704 185.713C139.964 157.177 153.944 140.38 162.604 131.877C167.716 126.869 171.003 124.73 171.003 124.73C171.003 124.73 177.784 121.965 191.817 126.347C197.399 128.068 201.625 130.312 204.598 132.45C209.189 135.633 211.067 138.45 211.067 138.45C211.067 138.45 211.536 143.562 211.275 151.804Z" fill="#E1ECFF"/>
<path d="M211.276 151.805C210.91 166.047 208.824 189.73 200.321 213.205C192.965 233.55 186.601 247.061 182.375 255.043C178.88 261.616 176.845 264.537 176.845 264.537C176.845 264.537 171.316 267.302 160.674 268.137C167.455 258.851 177.524 242.732 187.54 218.318C203.816 178.671 204.807 143.824 204.65 132.451C209.241 135.633 211.119 138.45 211.119 138.45C211.119 138.45 211.536 143.563 211.276 151.805Z" fill="#C5DFFF"/>
<path d="M117.063 239.132C116.907 239.132 116.802 239.132 116.646 239.08C115.185 238.871 114.194 237.462 114.403 236.002C114.559 235.115 117.898 213.622 127.131 191.973C136.365 170.376 143.668 159.786 143.981 159.317C144.816 158.117 146.485 157.804 147.737 158.639C148.937 159.473 149.25 161.143 148.415 162.395C148.363 162.499 141.06 173.037 132.087 194.06C123.115 215.083 119.724 236.576 119.724 236.784C119.463 238.193 118.315 239.132 117.063 239.132Z" fill="#F8FBFF"/>
<path d="M211.276 151.804C209.45 150.187 207.103 148.309 204.286 146.379C203.138 145.596 201.886 144.762 200.53 143.927C199.799 143.51 199.069 143.04 198.287 142.623C195.209 140.849 191.714 139.18 187.905 137.719C187.592 137.615 187.332 137.511 187.019 137.406C186.445 137.198 185.923 136.989 185.401 136.832C181.019 135.267 177.159 134.224 173.873 133.494C172.934 133.285 171.995 133.129 171.16 132.92C167.508 132.242 164.691 132.033 162.709 131.929C167.821 126.921 171.108 124.782 171.108 124.782C171.108 124.782 173.194 123.947 177.472 123.947C178.411 123.947 179.454 123.999 180.602 124.104C183.315 124.312 186.601 124.886 190.462 125.982C190.931 126.138 191.453 126.243 191.922 126.399C192.287 126.503 192.653 126.608 193.018 126.764C196.043 127.808 198.652 128.955 200.843 130.103C201.73 130.572 202.512 131.042 203.295 131.564C203.816 131.877 204.234 132.19 204.703 132.503C209.294 135.685 211.172 138.502 211.172 138.502C211.172 138.502 211.537 143.562 211.276 151.804Z" fill="#1C3177"/>
<path d="M211.275 151.804C209.45 150.186 207.102 148.308 204.285 146.378C204.702 140.275 204.702 135.528 204.702 132.502C209.293 135.684 211.171 138.501 211.171 138.501C211.171 138.501 211.536 143.561 211.275 151.804Z" fill="#142966"/>
<path d="M203.295 131.563L200.895 143.3C200.843 143.561 200.739 143.77 200.53 143.978C199.8 143.561 199.07 143.092 198.287 142.674L200.843 130.154C201.73 130.624 202.565 131.093 203.295 131.563Z" fill="#142966"/>
<path d="M193.019 126.763L187.906 137.718C187.593 137.614 187.333 137.509 187.02 137.405C186.446 137.196 185.924 136.988 185.402 136.831L190.41 125.98C190.88 126.137 191.402 126.241 191.871 126.398C192.288 126.554 192.654 126.659 193.019 126.763Z" fill="#142966"/>
<path d="M180.602 124.103C180.55 124.208 180.498 124.312 180.446 124.416L173.873 133.493C172.934 133.285 171.995 133.128 171.16 132.919C171.212 132.711 171.264 132.502 171.421 132.293L177.472 123.895C178.411 123.947 179.455 123.999 180.602 124.103Z" fill="#142966"/>
<path d="M142.856 248.325C155.12 252.532 169.79 242.157 175.624 225.151C181.458 208.146 176.246 190.95 163.982 186.743C151.719 182.536 137.048 192.911 131.214 209.916C125.38 226.921 130.593 244.117 142.856 248.325Z" fill="#C5DFFF"/>
<path d="M144.535 246.989C156.798 251.196 171.416 240.976 177.184 224.161C182.953 207.347 177.687 190.305 165.424 186.098C153.16 181.891 138.543 192.111 132.774 208.926C127.006 225.741 132.271 242.782 144.535 246.989Z" fill="#1C3177"/>
<path d="M145.751 241.166C155.48 244.504 167.149 236.185 171.814 222.586C176.479 208.988 172.374 195.258 162.645 191.92C152.916 188.583 141.247 196.901 136.582 210.5C131.917 224.099 136.022 237.828 145.751 241.166Z" fill="#99ADF9"/>
<path d="M150.684 208.634C153.464 209.588 156.801 207.202 158.138 203.305C159.475 199.407 158.305 195.475 155.525 194.522C152.746 193.568 149.408 195.954 148.071 199.851C146.735 203.748 147.904 207.681 150.684 208.634Z" fill="#C5DFFF"/>
<path d="M144.309 225.773C145.808 226.287 147.599 225.025 148.309 222.954C149.02 220.883 148.381 218.787 146.882 218.273C145.383 217.759 143.592 219.021 142.881 221.092C142.171 223.163 142.81 225.259 144.309 225.773Z" fill="#C5DFFF"/>
<path d="M171.837 222.594C167.142 236.21 155.509 244.504 145.754 241.165C140.642 239.392 137.042 234.749 135.529 228.75C136.781 229.584 138.138 230.315 139.598 230.784C151.701 234.958 166.255 224.576 172.046 207.622C172.411 206.579 172.724 205.536 172.985 204.492C174.289 209.865 174.028 216.282 171.837 222.594Z" fill="#7C99F2"/>
<path d="M182.428 255.093C178.933 261.666 176.898 264.588 176.898 264.588C176.898 264.588 171.369 267.353 160.727 268.187C154.78 268.657 147.268 268.552 138.243 267.04C128.905 265.475 122.697 263.388 118.524 261.406C111.429 258.015 110.334 254.885 110.334 254.885C110.334 254.885 109.968 250.346 111.168 241.426C113.359 243.46 116.281 245.756 120.141 247.894C126.088 251.181 134.174 254.259 145.181 255.876C153.423 257.076 161.3 257.232 168.343 256.763C173.56 256.502 178.307 255.824 182.428 255.093Z" fill="#FF97C9"/>
<path d="M182.428 255.094C178.933 261.667 176.898 264.588 176.898 264.588C176.898 264.588 171.369 267.353 160.727 268.188C162.97 265.11 165.526 261.354 168.343 256.763C173.56 256.502 178.307 255.824 182.428 255.094Z" fill="#FC75BC"/>
<path d="M120.141 247.947L118.524 261.458C111.429 258.068 110.334 254.938 110.334 254.938C110.334 254.938 109.968 250.399 111.168 241.479C113.359 243.513 116.281 245.756 120.141 247.947Z" fill="#FCB6DA"/>
<path d="M335.977 237.913L303.102 249.3L287.92 254.575L284.253 255.862L257.49 265.126C253.694 266.477 249.448 265.512 246.489 262.746L243.079 259.465C241.149 257.599 241.278 254.575 243.015 252.838C243.465 252.388 244.044 252.002 244.688 251.809L323.046 224.532C325.362 223.76 327.871 224.21 329.672 225.818L336.942 232.123C337.199 232.316 337.392 232.573 337.585 232.831C338.872 234.632 338.164 237.141 335.977 237.913Z" fill="#BBCBFF"/>
<path d="M316.677 274.583L279.878 286.356C276.468 287.45 272.737 286.678 270.035 284.298L266.625 281.274C264.76 279.666 264.631 277.028 265.853 275.227C266.432 274.39 267.269 273.747 268.298 273.425L292.68 266.091C292.873 266.027 293.002 265.963 293.131 265.834C293.903 265.255 293.967 264.161 293.195 263.454L284.253 255.798L281.358 253.353L280.843 252.903C278.012 250.523 279.042 245.891 282.644 244.99L295.189 241.709L303.102 249.3L318.993 264.483C319.507 264.933 319.893 265.512 320.151 266.091C321.823 269.244 320.344 273.425 316.677 274.583Z" fill="#BBCBFF"/>
<path d="M293.195 265.835C293.967 265.256 294.031 264.162 293.259 263.454L284.317 255.799L257.554 265.063C253.759 266.414 249.513 265.449 246.553 262.682L243.144 259.401C241.214 257.536 241.342 254.512 243.079 252.775C244.752 255.22 250.542 260.881 254.338 261.01C258.005 261.138 284.96 251.553 284.96 251.553C284.96 251.553 296.733 261.589 297.184 262.103C298.406 263.39 295.254 265.32 293.195 265.835Z" fill="#99ADF9"/>
<path d="M335.977 237.912L303.103 249.299L299.629 246.083C299.629 246.083 331.924 234.374 336.106 233.216C336.685 233.087 337.2 232.959 337.714 232.83C338.872 234.631 338.165 237.14 335.977 237.912Z" fill="#99ADF9"/>
<path d="M316.677 274.584L279.878 286.357C276.468 287.451 272.737 286.679 270.035 284.298L266.625 281.275C264.76 279.666 264.631 277.029 265.853 275.227C268.748 277.222 274.667 281.339 276.147 281.725C278.077 282.175 285.99 279.602 294.61 276.514C303.231 273.426 317.384 267.7 320.215 266.156C321.823 269.244 320.344 273.426 316.677 274.584Z" fill="#99ADF9"/>
<path d="M321.759 183.293C320.537 179.498 317.32 176.088 311.209 173.129C292.166 163.865 271.515 182.779 259.227 196.031C253.051 202.722 249.127 208.769 248.226 214.045C247.326 219.256 249.384 223.63 255.239 226.847C277.755 239.328 297.377 222.987 309.536 209.734C317.642 200.663 324.333 191.271 321.759 183.293ZM294.997 200.342C283.738 210.442 273.831 219.191 265.918 214.624C265.275 214.238 264.824 213.787 264.567 213.208C263.28 210.249 267.591 204.716 277.691 196.289C289.721 186.188 296.734 180.784 302.91 183.1C304.454 183.679 305.419 184.387 305.805 185.288C307.156 188.054 303.489 192.686 294.997 200.342Z" fill="#BBCBFF"/>
<path d="M309.407 209.67C297.248 222.987 277.626 239.327 255.11 226.782C249.255 223.566 247.197 219.191 248.097 213.98C249.899 217.518 253.63 222.15 261.35 224.273C274.667 227.94 288.306 224.466 302.395 210.828C314.747 198.797 318.928 189.726 321.695 183.293C324.332 191.27 317.642 200.663 309.407 209.67Z" fill="#99ADF9"/>
<path d="M305.805 185.222C305.355 184.322 304.39 183.614 302.91 183.035C296.734 180.719 289.722 186.123 277.691 196.223C267.591 204.715 263.281 210.184 264.567 213.143C263.924 212.628 263.216 211.663 262.959 209.605C262.509 205.745 264.889 202.013 271.837 195.58C278.785 189.147 288.757 180.976 294.868 179.69C300.916 178.467 305.162 181.62 305.741 184.129C305.805 184.515 305.805 184.836 305.805 185.222Z" fill="#99ADF9"/>
<path d="M268.234 163.478L262.444 166.18C259.099 167.724 255.046 166.245 253.566 162.835L222.943 92.969C222.043 90.846 222.493 88.4657 223.973 86.8573C224.487 86.2783 225.131 85.828 225.838 85.5063L233.172 82.2253C236.067 80.9386 239.413 82.2253 240.7 85.1203L271.515 154.793C271.837 155.437 271.966 156.144 272.03 156.852C272.287 159.554 270.872 162.256 268.234 163.478Z" fill="#BBCBFF"/>
<path d="M286.826 110.661L257.811 123.72L251.635 126.487L241.471 112.205L264.888 101.59C265.21 101.461 265.467 101.268 265.724 101.011C266.754 100.046 266.947 98.3731 265.982 97.1508L254.209 82.2898C252.343 79.9095 252.6 76.6928 254.402 74.5698C254.981 73.8621 255.753 73.3475 256.653 72.9615L261.414 71.0958C263.859 70.1308 266.689 70.8385 268.362 72.9615L289.528 99.6598C289.785 99.9815 289.978 100.303 290.171 100.689C292.101 104.292 290.686 108.859 286.826 110.661Z" fill="#BBCBFF"/>
<path d="M286.826 110.661L257.812 123.721L255.367 118.574C255.367 118.574 279.621 108.731 285.861 105.128C288.177 103.777 289.464 102.169 290.172 100.689C292.102 104.292 290.686 108.86 286.826 110.661Z" fill="#99ADF9"/>
<path d="M268.234 163.478L262.444 166.18C259.099 167.724 255.046 166.245 253.566 162.835L222.943 92.9691C222.043 90.8461 222.493 88.4658 223.973 86.8574C230.149 100.496 257.426 160.712 257.748 161.548C258.134 162.513 258.262 163.157 261.029 161.934C263.602 160.776 269.842 158.46 272.094 156.852C272.287 159.554 270.872 162.256 268.234 163.478Z" fill="#99ADF9"/>
<path d="M265.661 101.076C266.69 100.111 266.883 98.4381 265.918 97.2158L254.145 82.3548C252.279 79.9744 252.537 76.7578 254.338 74.6348C256.847 77.9158 269.456 94.2564 270.614 96.3794C271.515 97.9234 268.105 99.9178 265.661 101.076Z" fill="#99ADF9"/>
</svg>
